# xmcd
#
# Track frame offsets:
#	182
#	17167
#	32512
#	48052
#	63857
#	76500
#	93740
#	110457
#	125785
#	143922
#
# Disc length: 2164 seconds
#
# Revision: 37
# Processed by: cddbd v1.5.2PL0 Copyright (c) Steve Scherf et al.
# Submitted via: audiograbber 1.83.01
#
DISCID=7908720a
DTITLE=Billy Ray Cyrus - Some Gave All
DYEAR=1992
DGENRE=Country
TTITLE0=Could've Been Me
TTITLE1=Achy Breaky Heart
TTITLE2=She's Not Cryin' Anymore
TTITLE3=Wher'm I Gonna Live?
TTITLE4=These Boots Are Made For Walkin'
TTITLE5=Someday Somewhere Somehow
TTITLE6=Never Thought I'd Fall In Love With You
TTITLE7=Ain't No Good Goodbye
TTITLE8=I'm So Miserable
TTITLE9=Some Gave All
EXTD=YEAR: 1992
EXTT0=
EXTT1=
EXTT2=
EXTT3=
EXTT4=
EXTT5=
EXTT6=
EXTT7=
EXTT8=
EXTT9=
PLAYORDER=
